HIERARCHY
ROOT root
{
	OFFSET	0	13.1	24.9
	CHANNELS 6  Xposition Yposition Zposition Xrotation Yrotation Zrotation
	JOINT spine_1
	{
		OFFSET	0	9.99999	0
		CHANNELS 3  Xrotation Yrotation Zrotation
		JOINT spine_2
		{
			OFFSET	0	112	-10
			CHANNELS 3  Xrotation Yrotation Zrotation
			JOINT spine_3
			{
				OFFSET	0	206.5	19.3
				CHANNELS 3  Xrotation Yrotation Zrotation
				JOINT spine_4
				{
					OFFSET	0	110.4	14.6
					CHANNELS 3  Xrotation Yrotation Zrotation
					JOINT neck_1
					{
						OFFSET	0	71.8	-50.3
						CHANNELS 3  Xrotation Yrotation Zrotation
						JOINT neck_2
						{
							OFFSET	0	86.2	-25.8
							CHANNELS 3  Xrotation Yrotation Zrotation
							JOINT head_ee
							{
								OFFSET	0	179.8	-8.7
								CHANNELS 3  Xrotation Yrotation Zrotation
								End Site
								{
									OFFSET	1	0	0
								}
							}
						}
					}
					JOINT left_clavicle
					{
						OFFSET	-43.2	22.4	-70.8
						CHANNELS 3  Xrotation Yrotation Zrotation
						JOINT left_shoulder
						{
							OFFSET	-93.9	-5.79999	48.7
							CHANNELS 3  Xrotation Yrotation Zrotation
							JOINT left_elbow
							{
								OFFSET	-291.4	-30.8	15.2
								CHANNELS 3  Xrotation Yrotation Zrotation
								JOINT left_lowarm_twist
								{
									OFFSET	-110.7	-3.89999	13.6
									CHANNELS 3  Xrotation Yrotation Zrotation
									JOINT left_hand
									{
										OFFSET	-110.7	-3.89999	13.6
										CHANNELS 3  Xrotation Yrotation Zrotation
										JOINT left_ee
										{
											OFFSET	-80.8	-5.10001	12.1
											CHANNELS 3  Xrotation Yrotation Zrotation
											End Site
											{
												OFFSET	1	0	0
											}
										}
									}
								}
							}
						}
					}
					JOINT right_clavicle
					{
						OFFSET	43.2	22.4	-70.8
						CHANNELS 3  Xrotation Yrotation Zrotation
						JOINT right_shoulder
						{
							OFFSET	93.9	-5.79999	48.7
							CHANNELS 3  Xrotation Yrotation Zrotation
							JOINT right_elbow
							{
								OFFSET	291.4	-30.8	15.2
								CHANNELS 3  Xrotation Yrotation Zrotation
								JOINT right_lowarm_twist
								{
									OFFSET	110.7	-3.89999	13.6
									CHANNELS 3  Xrotation Yrotation Zrotation
									JOINT right_hand
									{
										OFFSET	110.7	-3.89999	13.6
										CHANNELS 3  Xrotation Yrotation Zrotation
										JOINT right_ee
										{
											OFFSET	80.8	-5.10001	12.1
											CHANNELS 3  Xrotation Yrotation Zrotation
											End Site
											{
												OFFSET	1	0	0
											}
										}
									}
								}
							}
						}
					}
				}
			}
		}
	}
	JOINT left_hip
	{
		OFFSET	-82.8	-127.5	0.300001
		CHANNELS 3  Xrotation Yrotation Zrotation
		JOINT left_knee
		{
			OFFSET	-28.2	-396.7	2.2
			CHANNELS 3  Xrotation Yrotation Zrotation
			JOINT left_ankle
			{
				OFFSET	-11.7	-411.3	35.4
				CHANNELS 3  Xrotation Yrotation Zrotation
				JOINT left_toes
				{
					OFFSET	0	-60	-88.6
					CHANNELS 3  Xrotation Yrotation Zrotation
					JOINT left_foot_ee
					{
						OFFSET	-22.5	-16.5	-42.2
						CHANNELS 3  Xrotation Yrotation Zrotation
						End Site
						{
							OFFSET	1	0	0
						}
					}
				}
			}
		}
	}
	JOINT right_hip
	{
		OFFSET	82.8	-127.5	0.300001
		CHANNELS 3  Xrotation Yrotation Zrotation
		JOINT right_knee
		{
			OFFSET	28.2	-396.7	2.2
			CHANNELS 3  Xrotation Yrotation Zrotation
			JOINT right_ankle
			{
				OFFSET	11.7	-411.3	35.4
				CHANNELS 3  Xrotation Yrotation Zrotation
				JOINT right_toes
				{
					OFFSET	0	-60	-88.6
					CHANNELS 3  Xrotation Yrotation Zrotation
					JOINT right_foot_ee
					{
						OFFSET	22.5	-16.5	-42.2
						CHANNELS 3  Xrotation Yrotation Zrotation
						End Site
						{
							OFFSET	1	0	0
						}
					}
				}
			}
		}
	}
}
MOTION
Frames: 13
Frame Time: 0.02
3110.02 742.209 -562.427 149.277 -82.7942 151.548 -0.0455822 -0.0588327 -1.81978 -0.0437414 0.0570646 -1.81984 -0.0447678 0.439807 -1.76684 -0.0490909 0.155297 -1.8141 -16.5292 2.44593 5.9181 -16.4318 1.32938 6.42158 -0.0 0.0 -0.0 3.53968 -1.90052 6.71139 -28.0356 -14.6966 76.1987 0.517002 -14.3653 0.065154 -33.9522 -2.33213 3.59334 2.3438 10.7517 19.8312 -0.0 0.0 -0.0 0.168803 -3.92418 -0.779862 11.376 17.5707 -74.457 5.43425 69.5937 -3.77792 41.1274 0.409198 5.12661 -1.94804 -11.0962 7.83624 0.0 0.0 0.0 10.4225 1.57791 -5.6889 -13.6547 0.317257 2.06653 16.5563 27.3337 -2.44069 -20.9254 0.0 0.0 -0.0 0.0 -0.0 3.57537 24.0382 -9.32573 -1.03149 -0.0410958 -0.152959 34.9429 13.626 4.64978 -26.3753 0.0 0.0 0.0 0.0 0.0 
3119.12 742.716 -562.127 149.47 -82.5656 151.32 0.0463684 -0.135981 -1.78765 0.0481462 -0.0219709 -1.79268 0.0496256 0.353884 -1.75755 0.0453217 0.0719167 -1.79137 -16.454 2.75524 5.64198 -16.3678 2.07229 6.27009 -0.0 0.0 -0.0 3.22935 0.422465 6.25099 -28.5306 -15.1857 75.7679 0.559991 -15.5043 0.0762337 -35.2852 -2.46427 3.70189 2.73299 12.6143 23.1181 -0.0 0.0 -0.0 -1.07575 -4.16579 1.49644 10.7464 19.9781 -75.8811 6.09149 71.6332 -4.39799 39.812 0.339522 4.97348 -1.3104 -7.51189 5.3861 0.0 0.0 0.0 8.22213 0.265152 -4.61665 -11.6238 0.30141 1.75534 15.7326 28.1193 -2.33804 -19.6767 0.0 0.0 -0.0 0.0 -0.0 3.1502 25.6252 -9.0023 -1.47641 -0.0579695 -0.219154 33.8923 12.0675 4.50293 -27.7446 0.0 0.0 0.0 0.0 0.0 
3129.61 743.542 -563.504 156.827 -81.0608 158.716 0.10185 0.185912 -1.81337 0.10363 0.300906 -1.79788 0.0946581 0.669496 -1.69552 0.0908619 0.393364 -1.77994 -16.7307 4.02652 6.58237 -16.6235 4.01214 7.61147 -0.0 0.0 -0.0 2.55719 2.51707 5.10955 -28.494 -15.7932 76.0989 0.575474 -15.9116 0.0804254 -35.7246 -2.50837 3.73699 3.17085 13.6113 26.4984 -0.0 0.0 -0.0 -1.65734 -5.24052 2.41225 9.23218 20.4106 -75.831 6.39062 72.4358 -4.68255 39.4787 0.322426 4.93443 -0.983908 -5.34197 4.22132 0.0 0.0 0.0 6.39864 -0.585808 -5.28591 -9.9885 0.28064 1.50529 16.7516 27.9555 -2.47756 -18.0689 0.0 0.0 -0.0 0.0 -0.0 2.04626 25.8177 -8.47272 -0.0014499 -5.97028e-05 -0.00021449 33.4784 10.7246 4.42889 -28.7831 0.0 0.0 0.0 0.0 0.0 
3138.3 741.993 -568.088 158.972 -80.9364 160.469 0.243153 0.0808857 -1.80009 0.244934 0.195248 -1.7913 0.239344 0.560423 -1.71257 0.235362 0.282967 -1.77956 -17.3827 4.58558 5.27909 -17.3406 5.89252 6.63386 -0.0 0.0 -0.0 2.81091 3.06565 5.62356 -28.5858 -16.1295 76.2747 0.501523 -13.9523 0.0613676 -36.8226 -2.61976 3.82324 3.44991 16.1144 29.2036 -0.0 0.0 -0.0 -1.78019 -4.33275 2.77895 8.26819 20.0338 -75.4918 6.55242 72.8421 -4.83698 39.4075 0.318806 4.92608 -0.715878 -5.51666 2.38527 0.0 0.0 0.0 5.55296 -1.08286 -4.25077 -8.52901 0.256082 1.28269 16.91 28.4311 -2.50738 -16.6945 0.0 0.0 -0.0 0.0 -0.0 0.822061 24.5113 -7.59464 0.689826 0.02902 0.101879 35.4941 7.35302 4.55982 -31.0269 0.0 0.0 0.0 0.0 0.0 
3149.38 741.129 -572.857 156.034 -81.7694 157.328 0.377206 -0.046293 -1.89881 0.379209 0.0746047 -1.89791 0.377374 0.459877 -1.84288 0.372671 0.163112 -1.89236 -19.2432 6.02793 6.36807 -19.2154 8.29996 8.34809 -0.0 0.0 -0.0 1.86005 4.85188 3.98959 -27.3768 -16.1593 77.8154 0.577247 -15.9581 0.0809124 -37.3535 -2.6742 3.86418 3.50521 16.0922 29.5971 -0.0 0.0 -0.0 -2.28376 -6.63942 3.33096 7.18336 21.4867 -74.0241 5.88922 71.049 -4.20636 38.5863 0.277781 4.8294 -0.466285 -2.76256 1.92825 0.0 0.0 0.0 4.41533 -1.27885 -3.24472 -8.81276 0.2613 1.32592 20.728 27.174 -3.00307 -16.7006 0.0 0.0 -0.0 0.0 -0.0 -0.0259005 23.7705 -7.03535 0.0261644 0.00107837 0.00387035 36.5299 7.35609 4.65852 -30.8794 0.0 0.0 0.0 0.0 0.0 
3154.6 739.335 -574.908 157.656 -81.2532 158.615 0.436215 -0.152579 -1.83563 0.438089 -0.0354835 -1.84162 0.43989 0.338589 -1.81058 0.435318 0.0484429 -1.84132 -19.2058 6.55487 7.22713 -19.1564 8.86419 9.35126 -0.0 0.0 -0.0 1.78262 5.80285 3.9254 -26.8916 -17.256 78.1821 0.580027 -16.031 0.0816781 -39.3808 -2.88555 4.01583 3.25022 19.8424 28.728 -0.0 0.0 -0.0 -2.24873 -5.58506 3.443 6.89897 21.5517 -73.9853 5.35594 69.3212 -3.70459 38.5358 0.275304 4.82343 -0.227658 -2.84605 0.312484 0.0 0.0 0.0 3.56906 -0.830787 -2.96396 -6.82467 0.220236 1.02361 21.7723 27.931 -3.15616 -16.3867 0.0 0.0 -0.0 0.0 -0.0 -0.277873 25.2664 -6.59918 0.524974 0.0219731 0.0775638 36.6747 3.50472 4.61301 -31.987 0.0 0.0 0.0 0.0 0.0 
3161.09 738.287 -574.303 159.003 -81.5416 160.432 0.65223 -0.158834 -2.0334 0.65453 -0.0291484 -2.03939 0.65624 0.377349 -2.0044 0.650638 0.0561246 -2.03882 -19.3 7.30642 6.73947 -19.3152 10.5809 9.21877 -0.0 0.0 -0.0 1.45817 5.53934 3.31305 -25.3481 -17.5718 78.8732 0.52633 -14.6135 0.0674877 -37.76 -2.71615 3.89519 3.88413 19.5225 33.1999 -0.0 0.0 -0.0 -2.31025 -6.1791 3.45636 5.99278 23.0469 -74.0408 4.60729 66.3172 -3.0111 36.9799 0.201568 4.63866 -0.359913 -2.73742 1.23435 0.0 0.0 0.0 2.59146 -1.3069 -3.68004 -5.67016 0.191581 0.84876 24.6486 27.7012 -3.52305 -15.7345 0.0 0.0 -0.0 0.0 -0.0 -1.07929 23.9787 -6.63797 2.0892 0.0916534 0.307463 35.5443 2.64224 4.49606 -32.1872 0.0 0.0 0.0 0.0 0.0 
3167.53 740.34 -573.408 157.928 -81.3823 159.945 0.648928 -0.328149 -2.18883 0.651574 -0.188237 -2.20527 0.659744 0.25424 -2.19864 0.653011 -0.0960964 -2.21119 -19.522 7.80439 6.86789 -19.5625 11.5052 9.56974 -0.0 0.0 -0.0 1.32871 5.27091 3.0529 -24.691 -17.7944 79.1504 0.60205 -16.6067 0.0878665 -37.8941 -2.73004 3.90535 4.02626 19.4648 34.2455 -0.0 0.0 -0.0 -2.22876 -5.67378 3.39167 4.07839 24.0099 -73.1088 4.05507 63.5166 -2.51081 35.8464 0.151029 4.50284 -0.337505 -2.64844 1.12383 0.0 0.0 0.0 2.16573 -2.58569 -4.34843 -8.06557 0.247098 1.21214 27.2957 25.1391 -3.79161 -13.902 0.0 0.0 -0.0 0.0 -0.0 -1.15682 21.601 -8.18472 1.44443 0.0621699 0.212926 36.5334 0.186763 4.56636 -32.4197 0.0 0.0 0.0 0.0 0.0 
3170.91 738.848 -574.612 159.862 -81.7705 161.932 0.622236 -0.445352 -2.25742 0.625021 -0.300842 -2.28117 0.6381 0.159775 -2.29536 0.630806 -0.204641 -2.29179 -20.0595 8.64098 8.45399 -20.0666 12.3918 11.4481 -0.0 0.0 -0.0 1.4351 5.42045 3.26049 -23.6526 -17.8857 79.2025 0.606928 -16.7338 0.0892658 -38.7071 -2.81472 3.96626 3.84984 21.1428 33.286 -0.0 0.0 -0.0 -2.00014 -4.95855 3.08759 2.37844 23.6319 -71.9626 3.70536 61.4022 -2.20068 35.5703 0.139132 4.46962 -0.275453 -2.61599 0.726505 0.0 0.0 0.0 2.203 -0.875896 -4.50375 -6.17071 0.204437 0.9245 27.5114 27.6507 -3.87854 -13.54 0.0 0.0 -0.0 0.0 -0.0 -0.905551 21.7594 -8.14813 1.95614 0.0854818 0.287981 35.3366 -2.87815 4.43571 -33.1479 0.0 0.0 0.0 0.0 0.0 
3175.12 740.986 -576.021 163.873 -81.3451 166.425 0.61457 -0.247979 -2.4171 0.617815 -0.0937161 -2.42798 0.622829 0.39284 -2.39783 0.614805 0.00933267 -2.42976 -19.4912 9.65695 7.49102 -19.6222 14.7569 10.9154 -0.0 0.0 -0.0 1.62376 5.48493 3.60996 -21.4714 -18.0213 79.5364 0.585729 -16.1804 0.08326 -38.0 -2.74101 3.91335 3.94547 22.3431 34.2141 -0.0 0.0 -0.0 -1.82344 -4.84448 2.77941 0.634044 22.6074 -71.1538 3.07522 56.7057 -1.65978 34.1121 0.0789418 4.29319 -0.40244 -3.12605 1.35002 0.0 0.0 0.0 3.7388 0.970732 -5.36512 -7.32044 0.231458 1.09887 26.3195 27.6148 -3.73078 -13.0305 0.0 0.0 -0.0 0.0 -0.0 -1.84534 24.3815 -8.2794 5.04887 0.24059 0.736997 34.471 -4.55768 4.34754 -33.5718 0.0 0.0 0.0 0.0 0.0 
3175.5 740.82 -576.564 166.117 -82.0059 169.086 0.809204 -0.291076 -2.6179 0.813009 -0.123961 -2.63111 0.819752 0.394814 -2.60429 0.810288 -0.0212916 -2.63394 -18.353 10.355 7.50134 -18.5009 15.9258 11.0297 -0.0 0.0 -0.0 1.79234 4.95162 3.87351 -19.3872 -18.0973 79.0751 0.588446 -16.2515 0.0840188 -38.2416 -2.76613 3.93153 3.77286 23.0786 33.0968 -0.0 0.0 -0.0 -1.32687 -4.05715 1.97821 -1.23913 22.053 -70.2399 2.63558 52.5411 -1.30107 33.438 0.0526432 4.21115 -0.337037 -3.2047 0.883965 0.0 0.0 0.0 2.91145 -1.07332 -5.40024 -6.03098 0.200915 0.903346 28.8205 28.275 -4.05449 -11.9369 0.0 0.0 -0.0 0.0 -0.0 -0.771231 24.3272 -9.01695 5.14286 0.245683 0.750511 33.4146 -6.71705 4.24253 -34.3245 0.0 0.0 0.0 0.0 0.0 
3178.22 741.01 -577.82 167.525 -82.6336 171.173 0.9003 -0.187544 -2.80428 0.904674 -0.00879182 -2.81052 0.906068 0.53897 -2.75842 0.895464 0.0967457 -2.80887 -18.8118 10.5859 8.0693 -18.9553 16.1439 11.7206 -0.0 0.0 -0.0 1.81561 4.9473 3.91583 -17.0775 -18.5792 78.9847 0.60423 -16.6635 0.0884905 -38.2867 -2.77083 3.93492 3.72737 24.1219 32.9554 -0.0 0.0 -0.0 -1.21706 -3.43769 1.86279 -2.89551 20.5503 -69.5249 2.10164 46.1476 -0.895372 33.2852 0.0468161 4.1925 -0.389406 -3.36189 1.16318 0.0 0.0 0.0 3.85294 -0.595478 -5.80976 -6.70001 0.217312 1.00471 26.8482 28.2852 -3.81363 -11.9659 0.0 0.0 -0.0 0.0 -0.0 -0.660808 24.8163 -9.29879 5.40524 0.260018 0.788193 33.2213 -8.36604 4.22679 -34.3832 0.0 0.0 0.0 0.0 0.0 
3181.86 739.27 -578.933 172.717 -81.7929 176.706 0.976298 -0.0936618 -3.02505 0.981383 0.0989305 -3.02489 0.977053 0.682947 -2.94851 0.964983 0.208937 -3.01929 -18.5705 11.2444 7.73874 -18.7846 17.5505 11.6501 -0.0 0.0 -0.0 2.03207 4.8289 4.30363 -15.4662 -18.3529 78.9552 0.612353 -16.8749 0.090834 -38.8737 -2.83219 3.9786 3.6364 24.8002 32.4299 -0.0 0.0 -0.0 -1.05616 -1.83636 1.78509 -3.7463 20.7764 -69.2275 1.70793 40.2298 -0.62556 32.8447 0.0302954 4.13867 -0.458512 -3.84836 1.41163 0.0 0.0 0.0 4.32943 0.543269 -6.29804 -6.55835 0.213939 0.983228 28.35 27.7092 -3.98201 -11.6559 0.0 0.0 -0.0 0.0 -0.0 -0.075201 23.6812 -9.89835 5.8044 0.282158 0.845394 35.8827 -8.88767 4.49128 -34.3147 0.0 0.0 0.0 0.0 0.0 
